<?xml version="1.0" encoding="UTF-8"?>
<svg width="16px" height="16px" viewBox="0 0 16 16" version="1.1" xmlns="http://www.w3.org/2000/svg" xmlns:xlink="http://www.w3.org/1999/xlink">
    <title></title>
    <g id="视觉升级" stroke="none" stroke-width="1" fill="none" fill-rule="evenodd">
        <g id="首页-居中显示，两侧留白" transform="translate(-656.000000, -21.000000)">
            <g id="编组-5" transform="translate(417.000000, 18.000000)">
                <g id="Baseline-f" transform="translate(239.000000, 3.000000)">
                    <rect id="矩形" fill="#000000" fill-rule="nonzero" opacity="0" x="0" y="0" width="16" height="16"></rect>
                    <path d="M13.12,10.035 L14,10.55 L8.005,14 L2,10.545 L2.885,10.035 L8.005,12.98 L13.12,10.035 Z M13.12,7.56 L14,8.075 L8.005,11.525 L2,8.07 L2.885,7.56 L8.005,10.505 L13.12,7.56 Z M8.005,2 L14,5.48 L8.005,8.935 L2,5.475 L8.005,2 Z M8.005,3.16 L4,5.48 L8.005,7.785 L12.005,5.48 L8.005,3.16 Z" id="形状结合" fill="#1075E7"></path>
                </g>
            </g>
        </g>
    </g>
</svg>