<?xml version="1.0" encoding="UTF-8"?>
<svg width="291px" height="426px" viewBox="0 0 291 426" version="1.1" xmlns="http://www.w3.org/2000/svg" xmlns:xlink="http://www.w3.org/1999/xlink">
    <title>编组 9</title>
    <defs>
        <polygon id="path-1" points="65.475 0.8433 75.276 31.0086 75.276 71.4663 52.7841 78.7743 0.4617 78.7743 0.4617 0.8433"></polygon>
        <polygon id="path-3" points="65.475 0.8433 75.276 31.0086 75.276 71.4663 52.7841 78.7743 0.4617 78.7743 0.4617 0.8433"></polygon>
        <polygon id="path-5" points="65.475 0.8433 75.276 31.0086 75.276 71.4663 52.7841 78.7743 0.4617 78.7743 0.4617 0.8433"></polygon>
        <path d="M5.1093,0.0846 L5.30736923,0.0889416171 C7.1507654,0.169785375 8.83616897,1.37405172 9.4401,3.2319 L9.4401,3.2319 L9.49717171,3.42109036 C10.1480298,5.75809591 8.84527105,8.21406316 6.5169,8.9712 L6.5169,8.9712 L6.32770964,9.02820251 C3.99070409,9.67822978 1.53473684,8.37547105 0.7776,6.0471 L0.7776,6.0471 L0.720528302,5.85790782 C0.0696708449,3.52085796 1.37245263,1.06406053 3.7017,0.3078 C4.1697,0.1566 4.6431,0.0846 5.1093,0.0846 L5.1093,0.0846 Z" id="path-7"></path>
        <path d="M4.5648,0.8649 L4.76286609,0.869244717 C6.6062044,0.950145303 8.29076897,2.15522069 8.8947,4.0122 L8.8947,4.0122 L8.95170434,4.20139036 C9.6017759,6.53839591 8.29984737,8.99436316 5.9706,9.7515 L5.9706,9.7515 L5.78147886,9.8085717 C3.44530471,10.4594292 0.989360526,9.15664737 0.2331,6.8274 L0.2331,6.8274 L0.176026465,6.63820966 C-0.4748759,4.30120471 0.827052632,1.84526053 3.1563,1.089 C3.6234,0.9369 4.0977,0.8649 4.5648,0.8649 L4.5648,0.8649 Z" id="path-9"></path>
        <path d="M4.9887,0.8433 L5.18676609,0.847731547 C7.0301044,0.929385375 8.71466897,2.13365172 9.3186,3.9915 L9.3186,3.9915 L9.37567352,4.18068851 C10.0265753,6.51764855 8.72462368,8.97273947 6.3945,9.729 L6.3945,9.729 L6.20537884,9.78607353 C3.86920409,10.4369759 1.41323684,9.13504737 0.6561,6.8058 L0.6561,6.8058 L0.599095664,6.61667702 C-0.0509759003,4.28045796 1.25095263,1.82366053 3.5802,1.0674 C4.0482,0.9162 4.5225,0.8433 4.9887,0.8433 L4.9887,0.8433 Z" id="path-11"></path>
        <path d="M5.2245,0.5391 L5.42256609,0.543531547 C7.2659044,0.625185375 8.95046897,1.82945172 9.5544,3.6873 L9.5544,3.6873 L9.61147171,3.87642116 C10.2623298,6.21259591 8.95957105,8.66856316 6.6312,9.4257 L6.6312,9.4257 L6.44194229,9.48270434 C4.10415145,10.1327759 1.64906053,8.83084737 0.8928,6.5016 L0.8928,6.5016 L0.835660924,6.31240966 C0.184016967,3.97540471 1.48762895,1.51946053 3.816,0.7632 C4.2831,0.612 4.7574,0.5391 5.2245,0.5391 L5.2245,0.5391 Z" id="path-13"></path>
        <path d="M21.5406,0.6426 C8.8677,0.7569 0.6849,12.7755 0.594,24.9678 L0.594,24.9678 L0.594,25.3773 C0.6309,30.4263 2.0628,35.4798 5.1426,39.7098 L5.1426,39.7098 C20.4831,60.777 28.3401,85.0167 32.7159,92.3202 L32.7159,92.3202 C36.4077,98.4816 46.5183,113.5017 58.6944,106.5789 L58.6944,106.5789 C69.9003,100.2069 63.7929,75.2013 63.7929,75.2013 L63.7929,75.2013 C63.7929,75.2013 63.2979,17.8479 32.4639,3.2625 L32.4639,3.2625 C28.6974,1.4814 25.1586,0.6723 21.9105,0.6426 L21.9105,0.6426 L21.5406,0.6426 Z" id="path-15"></path>
        <path d="M5.7105,18.0342 C15.3207,29.2977 29.1897,51.9543 37.8774,44.0181 L37.8774,44.0181 C43.1442,39.2103 36.1035,16.4358 16.8345,4.0446 L16.8345,4.0446 C12.6189,1.3338 9.1989,0.198 6.6096,0.198 L6.6096,0.198 C-0.8694,0.1971 -1.4292,9.6687 5.7105,18.0342 L5.7105,18.0342 Z" id="path-17"></path>
        <path d="M8.4249,26.3097 C1.4481,45.477 -2.5767,59.2569 4.2471,61.6527 L4.2471,61.6527 C15.4449,65.5839 26.2197,48.5064 37.4427,33.3648 L37.4427,33.3648 C45.9405,21.9006 49.0419,5.4486 39.5577,1.2303 L39.5577,1.2303 C38.2104,0.6309 36.7308,0.3393 35.1675,0.3393 L35.1675,0.3393 C26.1774,0.3375 14.3685,9.9828 8.4249,26.3097 L8.4249,26.3097 Z" id="path-19"></path>
        <path d="M40.2291,1.1997 C34.3746,3.0762 25.4898,8.6589 16.6959,24.6852 L16.6959,24.6852 C5.2146,45.6102 -0.7605,68.5485 0.4203,83.079 L0.4203,83.079 C0.9225,89.2629 6.0561,93.1572 11.3859,93.2139 L11.3859,93.2139 L11.619,93.2139 C14.4036,93.1851 17.2233,92.1042 19.4481,89.7498 L19.4481,89.7498 C22.4559,86.5674 25.6383,81.6624 28.7523,74.2212 L28.7523,74.2212 C41.283,44.2773 52.9974,25.5123 54.3951,23.6286 L54.3951,23.6286 C58.1229,18.6003 60.7878,8.3349 52.677,2.8773 L52.677,2.8773 C50.3118,1.2861 47.5515,0.4887 44.7606,0.4887 L44.7606,0.4887 C43.2387,0.4887 41.7087,0.7263 40.2291,1.1997 L40.2291,1.1997 Z" id="path-21"></path>
        <path d="M0.7551,2.8908 C0.6309,4.3686 1.728,5.6682 3.2067,5.7915 L3.2067,5.7915 C4.6863,5.9166 5.985,4.8177 6.1083,3.339 L6.1083,3.339 C6.2325,1.8612 5.1354,0.5616 3.6558,0.4374 L3.6558,0.4374 C3.5802,0.4311 3.5037,0.4284 3.4281,0.4284 L3.4281,0.4284 C2.0466,0.4284 0.8721,1.4886 0.7551,2.8908 L0.7551,2.8908 Z" id="path-23"></path>
        <path d="M0.0783,2.8287 C-0.063,4.5216 1.1943,6.0093 2.8881,6.1515 L2.8881,6.1515 C4.581,6.2946 6.0687,5.0364 6.21,3.3426 L6.21,3.3426 C6.3522,1.6497 5.0949,0.1638 3.402,0.0207 L3.402,0.0207 C3.3147,0.0135 3.2274,0.009 3.1401,0.009 L3.1401,0.009 C1.5588,0.009 0.2142,1.224 0.0783,2.8287 L0.0783,2.8287 Z" id="path-25"></path>
        <path d="M0.1188,4.6764 C0.1188,7.0794 2.0655,9.027 4.4694,9.027 L4.4694,9.027 C6.8715,9.027 8.82,7.0794 8.82,4.6764 L8.82,4.6764 C8.82,2.2734 6.8715,0.3258 4.4694,0.3258 L4.4694,0.3258 C2.0655,0.3258 0.1188,2.2734 0.1188,4.6764 L0.1188,4.6764 Z" id="path-27"></path>
        <path d="M0.4752,2.709 C0.4752,3.7134 1.2897,4.5279 2.2941,4.5279 L2.2941,4.5279 C3.2976,4.5279 4.1121,3.7134 4.1121,2.709 L4.1121,2.709 C4.1121,1.7055 3.2976,0.891 2.2941,0.891 L2.2941,0.891 C1.2897,0.891 0.4752,1.7055 0.4752,2.709 L0.4752,2.709 Z" id="path-29"></path>
        <path d="M0.8748,3.4659 C0.8748,4.9491 2.0763,6.1524 3.5604,6.1524 L3.5604,6.1524 C5.0445,6.1524 6.2469,4.9491 6.2469,3.4659 L6.2469,3.4659 C6.2469,1.9827 5.0445,0.7794 3.5604,0.7794 L3.5604,0.7794 C2.0763,0.7794 0.8748,1.9827 0.8748,3.4659 L0.8748,3.4659 Z" id="path-31"></path>
        <path d="M5.9598,0.7623 C3.033,0.7623 0.6381,3.1563 0.6381,6.084 L0.6381,6.084 L0.6381,45.5859 C0.6381,48.5127 3.033,50.9076 5.9598,50.9076 L5.9598,50.9076 L60.1056,50.9076 C63.0324,50.9076 65.4264,48.5127 65.4264,45.5859 L65.4264,45.5859 L65.4264,6.084 C65.4264,3.1563 63.0324,0.7623 60.1056,0.7623 L60.1056,0.7623 L5.9598,0.7623 Z" id="path-33"></path>
        <path d="M9.1593,0.4275 C4.2165,0.8055 0.5166,5.1183 0.8946,10.0593 L0.8946,10.0593 C1.2717,15.0012 5.5845,18.7011 10.5255,18.324 L10.5255,18.324 C10.9953,18.2871 11.4552,18.216 11.8989,18.1116 L11.8989,18.1116 C16.7463,18.3582 28.1763,20.9772 33.9597,39.3993 L33.9597,39.3993 L34.0128,39.5694 C34.1064,40.0014 34.2315,40.4199 34.3863,40.824 L34.3863,40.824 C34.3926,40.8456 34.3998,40.8663 34.4043,40.887 L34.4043,40.887 L34.4079,40.8825 C35.8011,44.4753 39.4209,46.8909 43.4601,46.5822 L43.4601,46.5822 C48.402,46.2042 52.1019,41.8923 51.7248,36.9504 L51.7248,36.9504 C51.3963,32.6583 48.1005,29.3031 44.001,28.7424 L44.001,28.7424 L44.118,28.5948 C44.118,28.5948 21.0618,28.197 18.7956,8.4015 L18.7956,8.4015 L18.7677,8.433 C18.2853,3.8529 14.4126,0.4014 9.8523,0.4014 L9.8523,0.4014 C9.6237,0.4014 9.3915,0.4104 9.1593,0.4275 L9.1593,0.4275 Z" id="path-35"></path>
    </defs>
    <g id="页面-2" stroke="none" stroke-width="1" fill="none" fill-rule="evenodd">
        <g id="登录" transform="translate(-332.000000, -147.000000)">
            <g id="编组-9" transform="translate(332.000000, 147.000000)">
                <g id="编组" transform="translate(20.000000, 0.000000)">
                    <g>
                        <g>
                            <mask id="mask-2" fill="white">
                                <use xlink:href="#path-1"></use>
                            </mask>
                            <g id="Clip-74"></g>
                            <polygon id="Stroke-73" stroke="#597EF7" stroke-width="1.0665" stroke-linejoin="round" mask="url(#mask-2)" points="24.00885 6.43923 46.33965 43.53993 69.58665 58.57533"></polygon>
                        </g>
                        <g>
                            <mask id="mask-4" fill="white">
                                <use xlink:href="#path-3"></use>
                            </mask>
                            <g id="Clip-76"></g>
                            <polygon id="Stroke-75" stroke="#597EF7" stroke-width="1.4661" stroke-linejoin="round" mask="url(#mask-4)" points="6.36129 73.20267 46.31139 43.57917 23.97879 6.44877"></polygon>
                        </g>
                        <g>
                            <mask id="mask-6" fill="white">
                                <use xlink:href="#path-5"></use>
                            </mask>
                            <g id="Clip-78"></g>
                            <polygon id="Stroke-77" stroke="#597EF7" stroke-width="1.0665" stroke-linejoin="round" mask="url(#mask-6)" points="6.35337 73.1781 69.50097 58.6026 46.29447 43.6095"></polygon>
                        </g>
                    </g>
                    <g transform="translate(18.900000, 1.800000)">
                        <mask id="mask-8" fill="white">
                            <use xlink:href="#path-7"></use>
                        </mask>
                        <g id="Clip-80"></g>
                        <polygon id="Fill-79" fill="#597EF7" mask="url(#mask-8)" points="-7.1757 -1.62036 11.3679 -7.64586 17.3943 10.89864 -1.1511 16.92414"></polygon>
                    </g>
                    <g transform="translate(1.800000, 67.500000)">
                        <mask id="mask-10" fill="white">
                            <use xlink:href="#path-9"></use>
                        </mask>
                        <g id="Clip-82"></g>
                        <polygon id="Fill-81" fill="#597EF7" mask="url(#mask-10)" points="-7.72146 -0.83907 10.82304 -6.86457 16.84854 11.67993 -1.69596 17.70453"></polygon>
                    </g>
                    <g transform="translate(65.700000, 53.100000)">
                        <mask id="mask-12" fill="white">
                            <use xlink:href="#path-11"></use>
                        </mask>
                        <g id="Clip-84"></g>
                        <polygon id="Fill-83" fill="#597EF7" mask="url(#mask-12)" points="-7.29693 -0.86103 11.24667 -6.88653 17.27307 11.65797 -1.27233 17.68347"></polygon>
                    </g>
                    <g transform="translate(40.500000, 38.700000)">
                        <mask id="mask-14" fill="white">
                            <use xlink:href="#path-13"></use>
                        </mask>
                        <g id="Clip-86"></g>
                        <polygon id="Fill-85" fill="#597EF7" mask="url(#mask-14)" points="-7.0614 -1.16514 11.4822 -7.19064 17.5086 11.35386 -1.0368 17.37936"></polygon>
                    </g>
                </g>
                <g id="编组-2" transform="translate(0.000000, 238.000000)">
                    <g id="编组">
                        <mask id="mask-16" fill="white">
                            <use xlink:href="#path-15"></use>
                        </mask>
                        <g id="Clip-90"></g>
                        <polygon id="Fill-89" fill="#389E0D" mask="url(#mask-16)" points="-3.7962 112.7547 69.8436 112.7547 69.8436 -3.7476 -3.7962 -3.7476"></polygon>
                    </g>
                    <g id="编组" transform="translate(12.600000, 84.600000)">
                        <mask id="mask-18" fill="white">
                            <use xlink:href="#path-17"></use>
                        </mask>
                        <g id="Clip-92"></g>
                        <polygon id="Fill-91" fill="#BAE637" mask="url(#mask-18)" points="-3.7251 50.0589 43.9587 50.0589 43.9587 -4.1922 -3.7251 -4.1922"></polygon>
                    </g>
                    <g id="编组" transform="translate(70.200000, 68.400000)">
                        <mask id="mask-20" fill="white">
                            <use xlink:href="#path-19"></use>
                        </mask>
                        <g id="Clip-94"></g>
                        <polygon id="Fill-93" fill="#389E0D" mask="url(#mask-20)" points="-3.6639 66.6144 49.7718 66.6144 49.7718 -4.0518 -3.6639 -4.0518"></polygon>
                    </g>
                    <g id="编组" transform="translate(57.600000, 21.600000)">
                        <mask id="mask-22" fill="white">
                            <use xlink:href="#path-21"></use>
                        </mask>
                        <g id="Clip-96"></g>
                        <polygon id="Fill-95" fill="#BAE637" mask="url(#mask-22)" points="-4.1175 97.605 62.3727 97.605 62.3727 -3.9006 -4.1175 -3.9006"></polygon>
                    </g>
                    <g id="编组" transform="translate(27.900000, 31.500000)" stroke="#253369" stroke-linecap="round" stroke-linejoin="round" stroke-width="0.7371">
                        <path d="M57.78873,73.7775 C57.78873,73.7775 41.03343,91.3464 41.03343,125.1351" id="Stroke-97"></path>
                        <path d="M29.02293,121.83165 C29.02293,121.83165 24.93693,97.56225 10.39383,78.08355" id="Stroke-99"></path>
                        <path d="M0.38205,0.00828 C0.38205,0.00828 38.58435,39.87468 28.72575,121.83138" id="Stroke-101"></path>
                        <path d="M53.84502,37.23876 C53.84502,37.23876 33.52302,70.77456 33.19182,125.13546" id="Stroke-103"></path>
                    </g>
                    <g id="编组" transform="translate(78.300000, 45.000000)">
                        <mask id="mask-24" fill="white">
                            <use xlink:href="#path-23"></use>
                        </mask>
                        <g id="Clip-106"></g>
                        <polygon id="Fill-105" fill="#FFFFFF" mask="url(#mask-24)" points="-3.645 10.1916 10.5093 10.1916 10.5093 -3.9618 -3.645 -3.9618"></polygon>
                    </g>
                    <g id="编组" transform="translate(82.800000, 75.600000)">
                        <mask id="mask-26" fill="white">
                            <use xlink:href="#path-25"></use>
                        </mask>
                        <g id="Clip-108"></g>
                        <polygon id="Fill-107" fill="#FFFFFF" mask="url(#mask-26)" points="-4.3218 10.5525 10.6119 10.5525 10.6119 -4.3812 -4.3218 -4.3812"></polygon>
                    </g>
                    <g id="编组" transform="translate(47.700000, 41.400000)">
                        <mask id="mask-28" fill="white">
                            <use xlink:href="#path-27"></use>
                        </mask>
                        <g id="Clip-110"></g>
                        <polygon id="Fill-109" fill="#FFFFFF" mask="url(#mask-28)" points="-4.2714 13.4172 13.2102 13.4172 13.2102 -4.0644 -4.2714 -4.0644"></polygon>
                    </g>
                    <g id="编组" transform="translate(36.000000, 72.900000)">
                        <mask id="mask-30" fill="white">
                            <use xlink:href="#path-29"></use>
                        </mask>
                        <g id="Clip-112"></g>
                        <polygon id="Fill-111" fill="#FFFFFF" mask="url(#mask-30)" points="-3.915 8.9181 8.5023 8.9181 8.5023 -3.4992 -3.915 -3.4992"></polygon>
                    </g>
                    <g id="编组" transform="translate(22.500000, 95.400000)">
                        <mask id="mask-32" fill="white">
                            <use xlink:href="#path-31"></use>
                        </mask>
                        <g id="Clip-116"></g>
                        <polygon id="Fill-115" fill="#FFFFFF" mask="url(#mask-32)" points="-3.5163 10.5417 10.6371 10.5417 10.6371 -3.6117 -3.5163 -3.6117"></polygon>
                    </g>
                    <g id="编组" transform="translate(27.900000, 136.800000)">
                        <mask id="mask-34" fill="white">
                            <use xlink:href="#path-33"></use>
                        </mask>
                        <g id="Clip-118"></g>
                        <polygon id="Fill-117" fill="#253369" mask="url(#mask-34)" points="-3.7521 55.2978 69.8175 55.2978 69.8175 -3.6279 -3.7521 -3.6279"></polygon>
                    </g>
                </g>
                <g id="编组" transform="translate(6.000000, 135.000000)">
                    <mask id="mask-36" fill="white">
                        <use xlink:href="#path-35"></use>
                    </mask>
                    <g id="Clip-126"></g>
                    <polygon id="Fill-125" fill="#E4EBF7" mask="url(#mask-36)" points="-2.89629 -1.55448 51.36831 -5.69988 55.51461 48.56472 1.24911 52.71102"></polygon>
                </g>
                <g id="编组-3" transform="translate(96.000000, 44.000000)">
                    <path d="M100.331123,126.923866 L90.9081233,103.119766 L109.273523,92.551966 C109.273523,92.551966 127.565123,125.382166 123.664523,132.634366 C117.944123,143.268766 107.001023,144.670066 100.331123,126.923866" id="Fill-531" fill="#FFC999"></path>
                    <path d="M16.9809533,379.884526 C5.73725325,384.553726 0.0168532526,377.713726 0.0168532526,377.713726 C0.0168532526,377.713726 -0.287346747,375.328726 1.68905325,372.676426 C4.16315325,369.356326 9.64055325,368.199826 16.1610533,361.854826 C21.1686533,356.982226 24.4977533,349.374526 24.4977533,349.374526 C28.1256533,344.081626 39.5673533,350.467126 39.5673533,350.467126 C39.5673533,350.467126 39.7032533,361.445326 39.4386533,367.722826 C39.4386533,367.722826 39.0048533,371.178826 30.3900533,372.368626 C23.9442533,373.259626 23.7147533,377.089126 16.9809533,379.884526" id="Fill-532" fill="#4E5C93"></path>
                    <path d="M83.9280833,347.640046 C83.9280833,347.640046 83.3592833,363.643846 84.6147833,367.867546 C88.2912833,372.064246 91.5618833,370.144546 96.4479833,374.328646 C101.334983,378.512746 111.625583,385.459846 120.960383,378.301246 C122.119583,373.447546 119.046983,371.245246 115.241783,368.644246 C99.5547833,357.924346 102.315083,356.016346 99.4800833,349.827046 C95.1294833,340.328446 83.8569833,340.983646 83.9280833,347.640046" id="Fill-533" fill="#4E5C93"></path>
                    <path d="M43.1653733,135.404386 C43.1653733,135.404386 38.1109733,109.379086 35.8645733,99.761686 C33.6181733,90.145186 30.2503733,67.131286 34.2274733,65.431186 C38.2045733,63.730186 47.7247733,60.124786 47.7247733,60.124786 C47.7247733,60.124786 55.2919733,59.894386 63.7960733,61.752886 C70.5271733,63.224386 70.4965733,59.253586 78.6595733,60.646786 C82.1173733,61.238086 95.6407733,65.549086 98.2570733,67.630786 C100.873373,69.714286 95.6587733,137.077486 95.6587733,137.077486 C95.6587733,137.077486 98.8735733,140.417386 94.9315733,144.705886 C92.9785733,146.711986 84.5734733,145.983886 73.8085733,145.953286 C61.5550733,145.917286 47.1325733,147.377986 44.4703733,145.033486 C39.4708733,140.630686 43.1653733,135.404386 43.1653733,135.404386" id="Fill-534" fill="#597EF7"></path>
                    <polygon id="Fill-535" fill="#597EF7" points="74.7875033 55.953016 66.9323033 62.558116 75.6803033 71.684116 80.1524033 60.866116"></polygon>
                    <path d="M41.7107933,140.334226 L40.4237933,152.034226 C40.4237933,152.034226 9.49889325,135.110626 3.43469325,125.450026 C-1.95000675,116.873026 11.2781933,96.191026 11.2781933,96.191026 C11.2781933,96.191026 24.1391933,105.371926 26.4962933,111.086026 L24.2903933,117.462526 L41.7107933,140.334226 Z" id="Fill-536" fill="#FFC999"></path>
                    <path d="M97.1960633,122.089876 C97.1960633,122.089876 85.1063633,98.623276 84.2540633,85.676776 C83.4179633,72.980476 94.6886633,63.606076 100.398263,69.198676 C104.305163,73.027276 107.625263,82.218976 110.834663,90.068776 C114.458063,98.928376 117.436163,106.432576 117.436163,106.432576 C117.436163,106.432576 108.500063,114.299476 97.1960633,122.089876" id="Fill-537" fill="#597EF7"></path>
                    <path d="M97.0317233,121.818256 C97.0317233,121.818256 108.765023,114.916156 117.392423,106.288756" id="Stroke-538" stroke="#1D39C4" stroke-width="0.8352" stroke-linecap="round" stroke-linejoin="round"></path>
                    <path d="M5.59037325,106.593856 C5.59037325,106.593856 21.0046733,74.593456 29.1757733,68.392456 C37.3477733,62.191456 40.9207733,65.543956 44.1391733,70.068256 C46.1650733,72.915856 50.8090733,80.986156 40.1566733,97.763956 C32.1349733,110.399056 28.7806733,115.077256 27.8158733,117.189556 C14.6290733,116.148256 5.59037325,106.593856 5.59037325,106.593856" id="Fill-539" fill="#597EF7"></path>
                    <polygon id="Fill-540" fill="#FFC999" points="67.0856633 63.751606 74.7500633 56.150206 73.7042633 29.877406 53.2436633 30.802606 52.1087633 56.696506"></polygon>
                    <path d="M79.0334333,27.543256 C79.0334333,27.543256 82.2158333,24.361756 83.4938333,26.562256 C84.7727333,28.761856 82.3337333,36.509056 78.9407333,36.652156 C74.4110333,36.842956 79.0334333,27.543256 79.0334333,27.543256" id="Fill-541" fill="#FFC999"></path>
                    <path d="M58.9724333,47.147236 C58.9724333,47.147236 65.5271333,52.706536 74.4263333,47.460436 C80.8316333,43.683136 81.8531333,29.634136 80.8055333,19.292236 C80.2133333,13.440436 77.5736333,10.252636 71.9081333,8.42833596 C66.2426333,6.60403596 50.8040333,6.28723596 50.4161333,23.470936 C49.9859333,42.612136 58.9724333,47.147236 58.9724333,47.147236" id="Fill-542" fill="#FFC999"></path>
                    <polyline id="Stroke-543" stroke="#DD936F" stroke-width="0.6264" stroke-linecap="round" stroke-linejoin="round" points="70.7972633 22.144156 69.8162633 25.763056 71.5991633 35.591956 67.4798633 35.558656"></polyline>
                    <path d="M57.9239333,21.316246 C59.4197333,21.638446 63.4175333,21.147046 66.0788333,20.900446" id="Stroke-544" stroke="#253368" stroke-width="1.6713" stroke-linecap="round" stroke-linejoin="round"></path>
                    <path d="M64.4594633,38.336236 C64.4594633,38.336236 67.2818633,39.113836 71.6306633,38.704336" id="Stroke-545" stroke="#FF7A45" stroke-width="0.8352" stroke-linecap="round" stroke-linejoin="round"></path>
                    <path d="M52.2444833,30.872536 L49.0116833,24.191836 C49.0116833,24.191836 47.0595833,14.608636 49.3428833,10.541536 C52.8861833,4.23073596 60.7323833,4.54303596 65.4213833,2.92573596 C70.1103833,1.30933596 70.0941833,-0.258464036 71.9796833,0.0358359636 C73.8642833,0.330135964 81.0903833,5.56453596 81.8157833,10.915036 C82.4538833,15.619336 81.0453833,27.549736 81.0453833,27.549736 C81.0453833,27.549736 79.9167833,16.941436 78.9465833,14.128936 C75.2826833,12.520636 61.8681833,12.203836 56.2377833,13.829236 C56.2377833,13.829236 55.6887833,17.424736 55.3629833,19.956436 C52.3263833,22.048036 52.2444833,30.872536 52.2444833,30.872536" id="Fill-546" fill="#253368"></path>
                    <path d="M74.7892133,47.080456 C74.7892133,47.080456 70.2361133,51.895456 60.7636133,48.059656" id="Stroke-547" stroke="#DD936F" stroke-width="0.5" stroke-linecap="round" stroke-linejoin="round"></path>
                    <line x1="67.5110033" y1="25.870696" x2="70.5422033" y2="25.800496" id="Stroke-548" stroke="#253368" stroke-width="1.2537" stroke-linecap="round" stroke-linejoin="round"></line>
                    <path d="M67.4160533,28.042486 C67.4160533,28.042486 69.4608533,26.727586 70.7091533,28.008286" id="Stroke-549" stroke="#253368" stroke-width="1.2537" stroke-linecap="round" stroke-linejoin="round"></path>
                    <path d="M71.4968333,21.549166 C71.4968333,21.549166 76.2137333,18.949066 79.3745333,21.111766" id="Stroke-550" stroke="#253368" stroke-width="1.6713" stroke-linecap="round" stroke-linejoin="round"></path>
                    <line x1="67.3079633" y1="41.689276" x2="69.7784633" y2="41.664976" id="Stroke-551" stroke="#DD936F" stroke-width="0.5" stroke-linecap="round" stroke-linejoin="round"></line>
                    <line x1="56.2804433" y1="25.962136" x2="51.3097433" y2="25.984636" id="Stroke-552" stroke="#253368" stroke-width="1.2537" stroke-linecap="round" stroke-linejoin="round"></line>
                    <path d="M56.6425133,24.976006 L66.1321133,24.8796334 C66.7945133,24.872506 67.3372133,25.401706 67.3399133,26.064106 C67.3435133,27.300706 67.2940133,29.283406 66.9898133,30.983506 C66.6316133,32.988706 64.8442133,34.231606 62.8102133,34.346806 C60.2704133,34.490806 57.9889133,34.516906 56.8225133,33.209206 C55.0450133,31.218406 55.4410133,27.904606 55.4608133,26.152306 C55.4671133,25.509706 55.9990133,24.983206 56.6425133,24.976006" id="Fill-553" fill="#FFEDE1"></path>
                    <path d="M56.6425133,24.976006 L66.1321133,24.8796334 C66.7945133,24.872506 67.3372133,25.401706 67.3399133,26.064106 C67.3435133,27.300706 67.2940133,29.283406 66.9898133,30.983506 C66.6316133,32.988706 64.8442133,34.231606 62.8102133,34.346806 C60.2704133,34.490806 57.9889133,34.516906 56.8225133,33.209206 C55.0450133,31.218406 55.4410133,27.904606 55.4608133,26.152306 C55.4671133,25.509706 55.9990133,24.983206 56.6425133,24.976006 Z" id="Stroke-554" stroke="#96A7CA" stroke-width="0.5" stroke-linecap="round" stroke-linejoin="round"></path>
                    <path d="M71.4423833,24.719326 L82.1865833,24.608626 C82.5996833,26.174626 82.2792833,32.249626 80.4486833,33.569926 C77.9916833,34.889326 72.9975833,34.379926 72.2082833,33.069526 C71.0112833,31.082326 70.5369833,27.272626 70.5405629,25.631026 C70.5414833,25.129726 70.9419833,24.724726 71.4423833,24.719326" id="Fill-555" fill="#FFEDE1"></path>
                    <path d="M71.4423833,24.719326 L82.1865833,24.608626 C82.5996833,26.174626 82.2792833,32.249626 80.4486833,33.569926 C77.9916833,34.889326 72.9975833,34.379926 72.2082833,33.069526 C71.0112833,31.082326 70.5369833,27.272626 70.5405629,25.631026 C70.5414833,25.129726 70.9419833,24.724726 71.4423833,24.719326 Z" id="Stroke-556" stroke="#96A7CA" stroke-width="0.5" stroke-linecap="round" stroke-linejoin="round"></path>
                    <line x1="55.6132733" y1="25.051606" x2="67.3789733" y2="25.239706" id="Stroke-557" stroke="#253368" stroke-width="1.2537" stroke-linecap="round" stroke-linejoin="round"></line>
                    <line x1="70.7506433" y1="25.125406" x2="82.2769433" y2="24.844606" id="Stroke-558" stroke="#253368" stroke-width="1.2537" stroke-linecap="round" stroke-linejoin="round"></line>
                    <path d="M50.8338233,25.495396 C49.7205233,24.157096 47.7864233,23.809696 46.4139233,25.211896 C44.2026233,27.469096 45.9351233,36.157696 51.7068233,36.689596 C53.6274233,36.402496 52.4745233,27.466396 50.8338233,25.495396" id="Fill-559" fill="#FFC999"></path>
                    <path d="M64.8971333,28.624336 C64.8971333,29.522536 64.3391333,30.250636 63.6506333,30.250636 C62.9639333,30.250636 62.4050333,29.522536 62.4050333,28.624336 C62.4050333,27.726136 62.9639333,26.998036 63.6506333,26.998036 C64.3391333,26.998036 64.8971333,27.726136 64.8971333,28.624336" id="Fill-560" fill="#253368"></path>
                    <path d="M78.3391733,28.624336 C78.3391733,29.522536 77.7820733,30.250636 77.0935733,30.250636 C76.4059733,30.250636 75.8479733,29.522536 75.8479733,28.624336 C75.8479733,27.726136 76.4059733,26.998036 77.0935733,26.998036 C77.7820733,26.998036 78.3391733,27.726136 78.3391733,28.624336" id="Fill-561" fill="#253368"></path>
                    <path d="M102.652313,125.245996 C102.652313,125.245996 102.070913,139.157296 114.119213,140.488396 C122.346113,141.396496 142.939013,103.656796 145.052213,99.181096 C146.562413,95.983396 136.682213,92.159296 136.682213,92.159296 L102.652313,125.245996 Z" id="Fill-562" fill="#FFC999"></path>
                    <path d="M42.3638333,353.026006 L68.4341333,189.694006 L69.9992333,189.362806 L80.8847333,352.625506 C80.8847333,352.625506 94.3775333,356.704306 101.542433,352.456306 C101.990633,320.624206 101.415533,217.318606 98.4977333,170.078506 C98.0279333,162.471706 95.7455333,152.125306 95.2937333,149.250706 C73.6163333,145.467106 43.9928333,150.304606 43.9928333,150.304606 L21.6071333,350.424106 C21.6071333,350.424106 32.3045333,356.192206 42.3638333,353.026006" id="Fill-563" fill="#ADC6FF"></path>
                    <line x1="68.1201233" y1="189.697066" x2="81.2394233" y2="184.380766" id="Stroke-564" stroke="#597EF7" stroke-width="0.6264" stroke-linecap="round" stroke-linejoin="round"></line>
                    <path d="M44.3396033,144.965176 C44.3396033,144.965176 71.9921033,141.029476 94.9367033,145.175776 C95.1158033,147.213376 95.2994033,149.720776 95.2994033,149.720776 C95.2994033,149.720776 76.7405033,145.057876 44.1776033,151.052776 C44.2964033,145.527676 44.3396033,144.965176 44.3396033,144.965176" id="Fill-565" fill="#ADC6FF"></path>
                    <path d="M44.5013333,151.990306 C44.5013333,151.990306 72.3851333,148.555006 94.6934333,151.767106" id="Stroke-566" stroke="#597EF7" stroke-width="0.6264" stroke-linecap="round" stroke-linejoin="round"></path>
                    <path d="M44.4274433,145.089106 C44.4274433,145.089106 72.3112433,141.653806 94.6195433,144.865906" id="Stroke-567" stroke="#1D39C4" stroke-width="0.8352" stroke-linecap="round" stroke-linejoin="round"></path>
                    <path d="M72.0312533,144.793816 C72.0312533,144.793816 71.7063533,173.031316 69.9756533,187.167616" id="Stroke-568" stroke="#597EF7" stroke-width="0.6264" stroke-linecap="round" stroke-linejoin="round"></path>
                    <path d="M77.3855333,146.775706 C77.3945333,147.555106 76.9094333,148.192306 76.3037333,148.198606 C75.6971333,148.205806 75.1985333,147.579406 75.1904333,146.799106 C75.1823333,146.019706 75.6665333,145.382506 76.2731333,145.375306 C76.8797333,145.369906 77.3774333,145.996306 77.3855333,146.775706" id="Fill-569" fill="#FFFFFF"></path>
                    <path d="M137.163443,99.879046 C137.163443,99.879046 134.186243,97.293346 134.228543,91.421746 C134.263643,86.622946 137.536943,73.639546 137.876243,72.933046 C139.032743,70.525546 141.489743,72.175246 140.042543,79.695646 C144.262643,76.261246 146.308343,72.768346 146.680943,68.993746 C147.054443,65.217346 150.567143,65.847346 152.294243,70.701046 C154.132043,75.862546 154.552343,79.985446 152.906243,84.994846 C150.549143,92.166946 147.823943,96.318646 146.060843,98.138446 C144.628043,99.617146 139.989443,102.739246 137.163443,99.879046" id="Fill-570" fill="#FFC999"></path>
                    <line x1="140.042723" y1="79.695826" x2="140.171423" y2="83.246326" id="Stroke-571" stroke="#DD936F" stroke-width="0.5" stroke-linecap="round" stroke-linejoin="round"></line>
                    <path d="M153.294053,76.860466 C151.858553,75.955966 151.315853,78.776566 151.315853,78.776566 C151.315853,78.776566 151.135853,82.981366 147.750053,85.783966 C147.750053,85.783966 142.156553,88.046566 141.312353,94.280866" id="Stroke-572" stroke="#DD936F" stroke-width="0.5" stroke-linecap="round" stroke-linejoin="round"></path>
                    <path d="M146.331293,82.037176 C146.331293,82.037176 148.597493,80.765476 150.015893,74.718376 C150.015893,74.718376 151.010393,71.180476 152.497193,73.350376" id="Stroke-573" stroke="#DD936F" stroke-width="0.5" stroke-linecap="round" stroke-linejoin="round"></path>
                    <path d="M144.533993,79.748566 C144.533993,79.748566 146.178293,78.239266 147.483293,74.819266 C148.810793,71.344366 148.828793,68.032366 151.004093,68.863066" id="Stroke-574" stroke="#DD936F" stroke-width="0.5" stroke-linecap="round" stroke-linejoin="round"></path>
                    <line x1="122.459333" y1="106.226476" x2="108.546233" y2="118.993876" id="Stroke-575" stroke="#E2A688" stroke-width="0.6264" stroke-linecap="round" stroke-linejoin="round"></line>
                    <polygon id="Fill-576" fill="#597EF7" points="67.0056533 63.595096 59.3475533 73.558996 48.0588533 60.148096 52.2474533 54.969496"></polygon>
                    <path d="M67.4864333,64.531186 C67.4864333,64.531186 70.8803333,73.906486 72.5795333,108.083986 C73.4156333,124.898686 72.7343333,137.179186 72.3194333,142.359586" id="Stroke-577" stroke="#1D39C4" stroke-width="0.8352" stroke-linecap="round" stroke-linejoin="round"></path>
                    <path d="M98.6032133,70.080586 C98.6032133,70.080586 98.8462133,78.077986 97.3279133,82.799386 C97.3279133,82.799386 98.8435133,105.464086 95.4190133,137.264686 C95.4190133,137.264686 98.3764133,140.879986 94.7611133,144.495286" id="Stroke-578" stroke="#1D39C4" stroke-width="0.8352" stroke-linecap="round" stroke-linejoin="round"></path>
                    <path d="M77.0375033,77.604856 C77.0375033,77.604856 88.4549033,77.738056 93.2978033,79.989856 C93.3968033,89.200456 92.9360033,93.555556 92.9360033,93.555556 L86.3885033,97.975456 L77.9654033,93.203656 L77.0375033,77.604856 Z" id="Stroke-579" stroke="#1D39C4" stroke-width="0.8352" stroke-linecap="round" stroke-linejoin="round"></path>
                    <path d="M49.6586933,135.543256 C49.6586933,135.543256 42.7619933,128.914756 40.4588933,129.168556 C36.8894933,129.561856 39.3572933,136.473856 39.3572933,136.473856 C39.3572933,136.473856 36.3197933,138.505156 38.3546933,142.012456 C37.0964933,145.437856 38.9954933,147.065956 38.9954933,147.065956 C38.9954933,147.065956 37.0217933,149.673256 39.8666933,151.762156 C42.7115933,153.851056 49.1420933,153.194956 48.1529933,148.735456 C50.7152933,146.238856 48.5705933,143.789956 48.5705933,143.789956 C48.5705933,143.789956 50.4272933,141.417556 48.2852933,139.087456 C50.1563933,138.009256 50.3714933,136.241656 49.6586933,135.543256" id="Fill-580" fill="#FFC999"></path>
                    <line x1="48.2850233" y1="139.087006" x2="41.4198233" y2="135.161206" id="Stroke-581" stroke="#E2A688" stroke-width="0.6264" stroke-linecap="round" stroke-linejoin="round"></line>
                    <path d="M39.3570233,136.474036 C39.3570233,136.474036 36.3645233,139.207336 38.3553233,142.012636 C36.8253233,145.563136 38.9961233,147.066136 38.9961233,147.066136 L38.9934233,150.245836" id="Stroke-582" stroke="#E2A688" stroke-width="0.6264" stroke-linecap="round" stroke-linejoin="round"></path>
                    <line x1="41.9629733" y1="141.978616" x2="48.5707733" y2="143.790316" id="Stroke-583" stroke="#E2A688" stroke-width="0.6264" stroke-linecap="round" stroke-linejoin="round"></line>
                    <line x1="41.7881033" y1="147.627376" x2="48.1529033" y2="148.735276" id="Stroke-584" stroke="#E2A688" stroke-width="0.6264" stroke-linecap="round" stroke-linejoin="round"></line>
                    <path d="M67.5567233,71.118556 C67.5657233,71.897956 67.0455233,72.536056 66.3957233,72.542356 C65.7459233,72.549556 65.2131233,71.924056 65.2041233,71.143756 C65.1960233,70.364356 65.7153233,69.726256 66.3660233,69.719056 C67.0149233,69.712756 67.5486233,70.339156 67.5567233,71.118556" id="Fill-585" fill="#FFFFFF"></path>
                    <path d="M69.3576233,85.451776 C69.3657233,86.231176 68.8464233,86.869276 68.1957233,86.875576 C67.5459233,86.882776 67.0131233,86.257276 67.0050233,85.476976 C66.9960233,84.697576 67.5162233,84.059476 68.1660233,84.052276 C68.8149233,84.045976 69.3486233,84.672376 69.3576233,85.451776" id="Fill-586" fill="#FFFFFF"></path>
                    <path d="M70.4641733,100.968856 C70.4731733,101.748256 69.9529733,102.385456 69.3031733,102.392656 C68.6533733,102.399856 68.1205733,101.774356 68.1124733,100.994056 C68.1034733,100.214656 68.6236733,99.576556 69.2734733,99.569356 C69.9223733,99.563056 70.4560733,100.189456 70.4641733,100.968856" id="Fill-587" fill="#FFFFFF"></path>
                    <path d="M70.8561233,115.552546 C70.8642233,116.331946 70.3449233,116.969146 69.6951233,116.976346 C69.0444233,116.983546 68.5116233,116.358046 68.5035233,115.577746 C68.4945233,114.798346 69.0147233,114.160246 69.6645233,114.153046 C70.3134233,114.146746 70.8471233,114.773146 70.8561233,115.552546" id="Fill-588" fill="#FFFFFF"></path>
                    <path d="M70.8271433,134.846296 C70.8352433,135.625696 70.3159433,136.262896 69.6661433,136.270096 C69.0163433,136.277296 68.4835433,135.651796 68.4745433,134.871496 C68.4664433,134.092096 68.9857433,133.453996 69.6355433,133.446796 C70.2853433,133.440496 70.8181433,134.066896 70.8271433,134.846296" id="Fill-589" fill="#FFFFFF"></path>
                    <polyline id="Stroke-590" stroke="#1D39C4" stroke-width="0.8352" stroke-linecap="round" stroke-linejoin="round" points="48.2041133 60.557596 59.1130133 73.561696 67.0924133 64.378996"></polyline>
                    <polyline id="Stroke-591" stroke="#1D39C4" stroke-width="0.8352" stroke-linecap="round" stroke-linejoin="round" points="67.4046233 64.218256 75.9717233 73.224556 80.1549233 61.101556"></polyline>
                    <path d="M78.7742333,151.936666 C78.7742333,151.936666 80.9009333,174.737266 71.4905333,174.837166" id="Stroke-592" stroke="#597EF7" stroke-width="0.6264" stroke-linecap="round" stroke-linejoin="round"></path>
                    <path d="M29.5229933,71.525446 C29.5229933,71.525446 39.8837933,78.114346 37.9109933,99.474946" id="Stroke-593" stroke="#1D39C4" stroke-width="0.8352" stroke-linecap="round" stroke-linejoin="round"></path>
                    <path d="M5.59037325,106.593856 C5.59037325,106.593856 15.5812733,117.163456 27.8158733,117.189556" id="Stroke-594" stroke="#1D39C4" stroke-width="0.8352" stroke-linecap="round" stroke-linejoin="round"></path>
                    <path d="M48.2568533,26.503486 C48.2568533,26.503486 50.6877533,27.500686 50.1729533,29.658886 C49.9470533,30.602986 49.0020533,30.260086 48.8949533,31.202386 C48.7311533,32.638786 50.4447533,33.068086 50.4447533,33.068086" id="Stroke-595" stroke="#DD936F" stroke-width="0.5" stroke-linecap="round" stroke-linejoin="round"></path>
                </g>
                <path d="M255,72.9949179 C248.374888,72.9949179 243.004484,67.6245812 243.004484,61.0004484 C243.004484,54.3754188 248.374888,49.0050821 255,49.0050821 C261.625112,49.0050821 266.995516,54.3754188 266.995516,61.0004484 C266.995516,67.6245812 261.625112,72.9949179 255,72.9949179 L255,72.9949179 Z M291,66.4263898 L291,55.5736102 L282.447534,53.4005431 C281.818834,51.1297194 280.917489,48.9727956 279.780269,46.9674394 L284.292377,39.3818836 L276.618834,31.7075398 L269.032287,36.2195912 C267.026906,35.0823856 264.869955,34.1810516 262.6,33.5532567 L260.426009,25 L249.573991,25 L247.4,33.5532567 C245.130045,34.1810516 242.973094,35.0823856 240.967713,36.2195912 L233.381166,31.7075398 L225.707623,39.3818836 L230.219731,46.9674394 C229.082511,48.9727956 228.181166,51.1297194 227.552466,53.4005431 L219,55.5736102 L219,66.4263898 L227.552466,68.5994569 C228.181166,70.8702806 229.082511,73.0263076 230.219731,75.0316638 L225.707623,82.6181164 L233.381166,90.2924602 L240.967713,85.7804088 C242.973094,86.9176144 245.130045,87.8189484 247.4,88.4467433 L249.573991,97 L260.426009,97 L262.6,88.4467433 C264.869955,87.8189484 267.026906,86.9176144 269.032287,85.7804088 L276.618834,90.2924602 L284.292377,82.6181164 L279.780269,75.0316638 C280.917489,73.0263076 281.818834,70.8702806 282.447534,68.5994569 L291,66.4263898 Z" id="Fill-596" fill="#597EF7"></path>
            </g>
        </g>
    </g>
</svg>