<?xml version="1.0" encoding="UTF-8"?>
<svg width="12px" height="12px" viewBox="0 0 12 12" version="1.1" xmlns="http://www.w3.org/2000/svg" xmlns:xlink="http://www.w3.org/1999/xlink">
    <title>部署中</title>
    <g id="页面-2" stroke="none" stroke-width="1" fill="none" fill-rule="evenodd">
        <g id="机器管理-部署结果" transform="translate(-296.000000, -219.000000)" fill-rule="nonzero">
            <g id="部署中" transform="translate(296.000000, 219.000000)">
                <rect id="矩形" fill="#000000" opacity="0" x="0" y="0" width="12" height="12"></rect>
                <path d="M11.3622266,4.70935444 L11.3622266,0.885630445 C11.3622266,0.547752094 11.0883087,0.273871594 10.7504286,0.273871594 L6.4678748,0.273871594 C6.12999645,0.273871594 5.85609817,0.547751379 5.85609817,0.885630445 L5.85609817,4.70935444 C5.85609817,5.04721395 6.12999715,5.32111329 6.4678748,5.32111329 L10.7504286,5.32111329 C11.0883069,5.32111329 11.3622266,5.0472335 11.3622266,4.70935444 Z M10.138652,3.79165925 C10.138652,3.96060821 10.0016834,4.09755752 9.83273483,4.09755752 L7.38556784,4.09755752 C7.21663808,4.09755752 7.07966957,3.9606082 7.07966957,3.79165925 L7.07966957,1.80332207 C7.07966957,1.63437311 7.21661889,1.4974238 7.38556784,1.4974238 L9.83273483,1.4974238 C10.0016838,1.4974238 10.138652,1.63437312 10.138652,1.80332207 L10.138652,3.79165925 Z M5.23122888,6.67883692 L0.948639516,6.67883692 C0.610761164,6.67883692 0.336862887,6.9527359 0.336862887,7.29063489 L0.336862887,11.1143233 C0.336862887,11.4522017 0.610761867,11.7260999 0.948639516,11.7260999 L5.23119332,11.7260999 C5.56907167,11.7260999 5.84297121,11.452201 5.84297121,11.1143233 L5.84297121,7.29063489 C5.84297121,6.95273733 5.56907223,6.67883692 5.23121236,6.67883692 L5.23122888,6.67883692 Z M4.61941312,10.1966495 C4.61941312,10.3655984 4.4824638,10.5025477 4.31351486,10.5025477 L1.86634786,10.5025477 C1.6973989,10.5025477 1.56044959,10.3655984 1.56044959,10.1966495 L1.56044959,8.20831228 C1.56044959,8.03938253 1.69739891,7.90241418 1.86634786,7.90241418 L4.31351486,7.90241418 C4.48246382,7.90241418 4.61941312,8.0393827 4.61941312,8.20831245 L4.61941312,10.1966496 L4.61941312,10.1966495 Z M1.67064912,5.56825537 L3.34131957,3.61583851 L2.36143695,3.61583851 C2.36945583,2.5151556 3.22894184,1.62538501 4.28838697,1.62538501 L4.74283478,1.62538501 L4.74283478,0.282767191 L4.28838697,0.282767191 C2.52791036,0.282767191 1.10076115,1.76810598 1.10076115,3.60039123 C1.10076115,3.60557205 1.10085639,3.61071483 1.10095162,3.61587663 L1.95703125e-06,3.61585759 L1.67065107,5.56825537 L1.67064912,5.56825537 Z M12,8.39301084 L10.3293295,6.44063311 L8.6586413,8.39301084 L9.63856304,8.39301084 C9.63052513,9.49371154 8.77104036,10.3834821 7.71159523,10.3834821 L7.25716521,10.3834821 L7.25716521,11.7261391 L7.71161302,11.7261391 C9.47208963,11.7261391 10.8992211,10.2407789 10.8992211,8.4084759 C10.8992211,8.4033141 10.8991258,8.39817137 10.8990496,8.39300957 L12,8.39300957 L12,8.39301084 Z" id="形状" fill="#1890FF"></path>
            </g>
        </g>
    </g>
</svg>