<?xml version="1.0" encoding="UTF-8"?>
<svg width="16px" height="16px" viewBox="0 0 16 16" version="1.1" xmlns="http://www.w3.org/2000/svg" xmlns:xlink="http://www.w3.org/1999/xlink">
    <title>任务-f</title>
    <g id="页面-2" stroke="none" stroke-width="1" fill="none" fill-rule="evenodd">
        <g id="任务管理" transform="translate(-283.000000, -16.000000)" fill-rule="nonzero">
            <g id="编组" transform="translate(283.000000, 4.000000)">
                <g id="任务-f" transform="translate(0.000000, 12.000000)">
                    <rect id="矩形" fill="#000000" opacity="0" x="0" y="0" width="16" height="16"></rect>
                    <path d="M8.08,11.4453333 C7.864,11.4453333 7.65066667,11.3813333 7.46666667,11.256 L2.27466667,7.67733333 C1.98585663,7.47834466 1.81258366,7.15071934 1.81063724,6.8 C1.808,6.43466667 1.98666667,6.09066667 2.28533333,5.88 L7.62133333,2.096 C8,1.82933333 8.504,1.82133333 8.87733333,2.08 L14.072,5.65866667 C14.36,5.856 14.5333333,6.184 14.5360294,6.536 C14.5386667,6.90133333 14.36,7.24533333 14.0613333,7.456 L8.72533333,11.24 C8.53333333,11.376 8.30666666,11.4453333 8.08,11.4453333 Z M8.072,10.3786667 C8.07466667,10.3813333 8.09066667,10.384 8.10666667,10.3706667 L13.4453333,6.58666667 C13.4773333,6.56266667 13.4693333,6.536 13.4693333,6.536 L8.27466667,2.95733333 C8.272,2.95733333 8.25866667,2.952 8.24,2.96533333 L2.904,6.74933333 C2.872,6.77333333 2.88,6.8 2.88,6.8 L8.072,10.3786667 L8.072,10.3786667 Z M8.01066667,15.12 C7.808,15.12 7.608,15.0613333 7.43733333,14.944 L2.36533333,11.448 C2.24878452,11.3678919 2.16892894,11.2446743 2.14341,11.1055711 C2.11789106,10.9664678 2.1488092,10.8229284 2.22933333,10.7066667 C2.39733333,10.464 2.728,10.4026667 2.97066667,10.5706667 L8.01333333,14.0453333 L13.2053333,10.3653333 C13.4453333,10.1946667 13.7786667,10.2506667 13.9493333,10.4933333 C14.12,10.7333333 14.064,11.0666667 13.8213333,11.2373333 L8.61333333,14.928 C8.432,15.056 8.22133333,15.12 8.01066667,15.12 L8.01066667,15.12 Z" id="形状" fill="#1890FF"></path>
                </g>
            </g>
        </g>
    </g>
</svg>