<?xml version="1.0" encoding="UTF-8"?>
<svg width="16px" height="16px" viewBox="0 0 16 16" version="1.1" xmlns="http://www.w3.org/2000/svg" xmlns:xlink="http://www.w3.org/1999/xlink">
    <title>tab_认证中心_02</title>
    <g id="页面-2" stroke="none" stroke-width="1" fill="none" fill-rule="evenodd">
        <g id="任务管理" transform="translate(-631.000000, -16.000000)" fill="#000000" fill-rule="nonzero">
            <g id="编组" transform="translate(283.000000, 4.000000)">
                <g id="编组-9" transform="translate(348.000000, 0.000000)">
                    <g id="tab_认证中心_02" transform="translate(0.000000, 12.000000)">
                        <rect id="矩形" opacity="0" x="0" y="0" width="15.9377432" height="15.9377432"></rect>
                        <path d="M10.8121668,2 C11.1614067,2 11.5423957,2.15874541 11.7646392,2.38098896 L14.6220565,5.65114428 C15.0982927,6.15912957 15.1300418,6.92110751 14.6855546,7.46084189 L9.66919989,14.191647 C9.41520724,14.5091378 8.74847655,14.6996323 7.9864986,14.6996323 C7.35151698,14.6996323 6.58953905,14.5408869 6.3355464,14.2233961 L1.28744257,7.46084189 C0.874704526,6.95285659 0.906453597,6.19087866 1.38268981,5.68289336 L4.17660892,2.44448713 C4.46235065,2.1587454 4.81159054,2 5.1925795,2 L10.8121668,2 Z M10.7804177,2.95247241 L5.1925795,2.95247241 C5.09733226,2.95247241 4.97033593,2.9842215 4.90683776,3.07946874 L2.08116959,6.2861259 C1.92242418,6.47662038 1.89067511,6.69886394 2.01767142,6.85760935 L7.03402618,13.5884145 C7.12927342,13.6201636 7.44676422,13.7471599 7.9864986,13.7471599 C8.52623298,13.7471599 8.87547286,13.6201636 8.93897103,13.5884145 L13.8918276,6.92110751 C14.050573,6.73061303 14.050573,6.50836946 13.8918276,6.34962405 L13.8600785,6.31787497 L11.0661594,3.04771966 C11.0344104,3.01597058 10.907414,2.95247241 10.7804177,2.95247241 Z M9.73269804,5.73392753 C9.98669069,5.73392753 10.2089343,5.95617109 10.2089343,6.21016374 C10.2089343,6.46415639 9.98669069,6.68639995 9.73269804,6.68639995 L8.53006295,6.68592753 L8.53076601,9.66915386 C8.53076601,9.92314651 8.30852245,10.1453901 8.0545298,10.1453901 C7.80053715,10.1453901 7.57829359,9.92314651 7.57829359,9.66915386 L7.57806295,6.68592753 L6.24029916,6.68639995 C5.98630651,6.68639995 5.76406295,6.46415639 5.76406295,6.21016374 C5.76406295,5.95617109 5.98630651,5.73392753 6.24029916,5.73392753 L9.73269804,5.73392753 Z" id="形状结合" fill-opacity="0.65"></path>
                    </g>
                </g>
            </g>
        </g>
    </g>
</svg>