
<svg width="35" height="35" xmlns="http://www.w3.org/2000/svg" xmlns:xlink="http://www.w3.org/1999/xlink"><defs><circle id="a" cx="17.5" cy="17.5" r="17.5"/></defs><g fill="none" fill-rule="evenodd"><mask id="b" fill="#fff"><use xlink:href="#a"/></mask><use fill="#E0ECFF" xlink:href="#a"/><path d="M11 13.352c0 3.508 2.89 6.353 6.453 6.353 3.564 0 6.45-2.845 6.45-6.353C23.904 9.842 21.015 7 17.45 7 13.886 7 11 9.842 11 13.352zM20.552 21h-6.104A9.447 9.447 0 005 30.315v.606c0 2.097 4.16 5.205 9.375 5.205h6.567c5.233 0 9.058-3.108 9.058-5.205v-.606C29.928 25.151 25.717 21 20.552 21z" fill="#1075E7" fill-rule="nonzero" opacity=".432" mask="url(#b)"/></g></svg>