<?xml version="1.0" encoding="UTF-8"?>
<svg width="12px" height="12px" viewBox="0 0 12 12" version="1.1" xmlns="http://www.w3.org/2000/svg" xmlns:xlink="http://www.w3.org/1999/xlink">
    <title></title>
    <g id="分析" stroke="none" stroke-width="1" fill="none" fill-rule="evenodd">
        <g id="0.性能-内网-选择标签" transform="translate(-1194.000000, -133.000000)" fill="#000000">
            <g id="Group-21" transform="translate(20.000000, 110.000000)">
                <g id="链接" transform="translate(1172.000000, 21.000000)">
                    <rect id="Rectangle" fill-rule="nonzero" opacity="0" x="0" y="0" width="16" height="16"></rect>
                    <path d="M11.91,7.92 C11.7153722,8.09503346 11.4186893,8.09033311 11.2297039,7.90922206 C11.0407184,7.72811102 11.0234032,7.43189657 11.19,7.23 L12.06,6.32 C12.709515,5.51696592 12.6264975,4.34816777 11.87,3.645 C11.115,2.86 10,2.79 9.37,3.45 L6.94,6 C6.29048502,6.80303408 6.37350246,7.97183223 7.13,8.675 C7.3238618,8.87001873 7.3238618,9.18498127 7.13,9.38 C7.0361167,9.47465633 6.90831877,9.52789916 6.775,9.52789916 C6.64168123,9.52789916 6.5138833,9.47465633 6.42,9.38 C5.29380253,8.29148422 5.21051969,6.51405308 6.23,5.325 L8.66,2.79 C9.705,1.7 11.48,1.79 12.61,2.99 C13.7040886,4.07696429 13.7802373,5.82185565 12.785,7 L11.91,7.92 Z M3.59,8.08 C3.78462784,7.90496654 4.0813107,7.90966689 4.27029614,8.09077794 C4.45928159,8.27188898 4.47659677,8.56810343 4.31,8.77 L3.44,9.68 C2.79048502,10.4830341 2.87350246,11.6518322 3.63,12.355 C4.385,13.14 5.5,13.21 6.13,12.55 L8.56,10 C9.20951498,9.19696592 9.12649754,8.02816777 8.37,7.325 C8.1761382,7.12998127 8.1761382,6.81501873 8.37,6.62 C8.4638833,6.52534367 8.59168123,6.47210084 8.725,6.47210084 C8.85831877,6.47210084 8.9861167,6.52534367 9.08,6.62 C10.2061975,7.70851578 10.2894803,9.48594692 9.27,10.675 L6.84,13.21 C5.795,14.3 4.02,14.21 2.89,13.01 C1.79591137,11.9230357 1.71976275,10.1781444 2.715,9 L3.59,8.08 Z" id="Shape" fill-opacity="0.65"></path>
                </g>
            </g>
        </g>
    </g>
</svg>