<?xml version="1.0" encoding="UTF-8"?>
<svg width="16px" height="16px" viewBox="0 0 16 16" version="1.1" xmlns="http://www.w3.org/2000/svg" xmlns:xlink="http://www.w3.org/1999/xlink">
    <title>Neutral</title>
    <g id="package" stroke="none" stroke-width="1" fill="none" fill-rule="evenodd">
        <g id="机型测试矩阵" transform="translate(-1209.000000, -227.000000)" fill="#000000" fill-rule="nonzero">
            <g id="表格备份-2" transform="translate(25.000000, 62.000000)">
                <g id="编组-2" transform="translate(0.000000, 76.000000)">
                    <g id="内容" transform="translate(19.000000, 0.000000)">
                        <g id="状态" transform="translate(1149.000000, 0.000000)">
                            <g id="进行中备份" transform="translate(16.000000, 86.000000)">
                                <g id="Neutral" transform="translate(0.000000, 3.000000)">
                                    <rect id="矩形" opacity="0" x="0" y="0" width="16" height="16"></rect>
                                    <path d="M8,1 C4.15,1 1,4.15 1,8 C1,11.85 4.15,15 8,15 C11.85,15 15,11.85 15,8 C15,4.15 11.85,1 8,1 Z M10.8,8.7 L5.2,8.7 C4.78,8.7 4.5,8.42 4.5,8 C4.5,7.58 4.78,7.3 5.2,7.3 L10.8,7.3 C11.22,7.3 11.5,7.58 11.5,8 C11.5,8.42 11.22,8.7 10.8,8.7 Z" id="形状" fill-opacity="0.25"></path>
                                </g>
                            </g>
                        </g>
                    </g>
                </g>
            </g>
        </g>
    </g>
</svg>